<?xml version="1.0" encoding="utf-8"?>
<!-- Generator: Adobe Illustrator 15.1.0, SVG Export Plug-In . SVG Version: 6.00 Build 0)  -->
<!DOCTYPE svg PUBLIC "-//W3C//DTD SVG 1.1//EN" "http://www.w3.org/Graphics/SVG/1.1/DTD/svg11.dtd">
<svg version="1.1" id="Layer_1" xmlns="http://www.w3.org/2000/svg" xmlns:xlink="http://www.w3.org/1999/xlink" x="0px" y="0px"
	 width="81px" height="94px" viewBox="0 0 81 94" enable-background="new 0 0 81 94" xml:space="preserve">
<g id="_x39_2AeC5_1_">
	<g>
		<g>
			<path fill-rule="evenodd" clip-rule="evenodd" fill="#6A6A62" d="M45,1c0.169,2.168-3.547,0.453-5,1c0.112,2.555,3.349,1.985,6,2
				c-2.805,2.195-10.167-0.167-12,3c1.438-1.759,0.917-2.279-2-2C34.675,2.009,38.808,0.474,45,1z"/>
			<path fill-rule="evenodd" clip-rule="evenodd" fill="#9B5430" d="M5,35c0.902,2.203-0.143,4.295,1,8
				c-2.312-1.022-2.069-4.598-2-8C4.333,35,4.667,35,5,35z"/>
			<path fill-rule="evenodd" clip-rule="evenodd" fill="#FFFFFF" d="M0,41c5.865,18.454,11.339,45.742,34,41
				c4.102,0.898,6.941,3.059,10,5c1.777,4.889,8.933,4.401,13,7c-19,0-38,0-57,0C0,76.333,0,58.667,0,41z"/>
			<path fill-rule="evenodd" clip-rule="evenodd" fill="#9B5430" d="M41,81c-0.333,0-0.667,0-1,0c0.144-1.182,1.78-2.267,0-3
				c2.02-1.23,3.48,0.19,6-2c2.023,3.206-3.956,3.128-1,4C44.814,81.48,42.583,80.917,41,81z"/>
			<path fill-rule="evenodd" clip-rule="evenodd" fill="#D2D7D5" d="M68,77c15.46-3.922,7.165-22.747,8-39
				c0.33-6.431,4.611-12.514,3-18C76.06,9.992,59.301,3.473,49,1c16.374,0.959,25.787,8.88,32,20c0,2,0,4,0,6
				c-6.621,10.941-0.945,26.56-2,42c-3.596,3.071-5.582,7.751-11,9C68,77.667,68,77.333,68,77z"/>
			<path fill-rule="evenodd" clip-rule="evenodd" fill="#D2D7D5" d="M3,31C1.067,52.486,8.036,81.802,34,82
				C11.339,86.742,5.865,59.454,0,41c0-2.333,0-4.667,0-7C2.396,34.396-0.555,29.445,3,31z"/>
			<path fill-rule="evenodd" clip-rule="evenodd" fill="#6A6A62" d="M58,79c2.202-1.798,7.126-0.874,10-2c0,0.333,0,0.667,0,1
				C64.614,78.281,62.258,79.591,58,79z"/>
			<path fill-rule="evenodd" clip-rule="evenodd" fill="#9B5430" d="M46,4c6.468,2.199,15.342,1.991,19,7
				c-0.027,0.973-1.224,0.776-2,1c0.85,1.483,2.517,2.15,5,2c-0.19,0.81-1.003,0.997-1,2c2.051,0.55,2.386-1.91,1-2
				c0-0.333,0-0.667,0-1c4.184,1.15,6.773,3.894,6,10c-0.891-0.443-1.789-0.878-2-2c1.214,0.905-5.075,6.643,1,6
				c-1.119-2.078-1.078-2.119,1-1c-0.521,1.479-1.479,2.521-2,4c-1.753-0.914-3.475-1.859-3-5c-1.615-0.282-1.722,0.945-3,1
				c1.611,0.04,1.969,2.08,4,4c-0.842,2.825-2.784,4.549-6,5c2.97,1.28-0.324,4.848,4,6c0.306,2.031-2.889-0.205-3-1
				c-1.763,0.903-3.097,2.237-4,4c3.779,0.728,5.377-4.627,6,1c4.746-0.609,3.236-6.458,1-7c-2.772-2.195,3.168-4.099,3-7
				c0.333,0,0.667,0,1,0c-3.212,10.437,5.031,33.091-4,40c1.001-1.332,1.648-3.019,3-4c-0.729-0.09-9.875,1.975-9-5
				c3.045,0.283,3.889-3.204,6-1c0.424-2.09-0.686-2.648-1-4c-0.81,0.19-0.997,1.003-2,1c4.186,4.666-4.475-2.776,1-2
				c1.47-3.804-4.47-0.196-3-4c1.479,0.521,2.521,1.479,4,2c3.144-1.394-1.375-4.936,1-6c-3.09,0.453-2.4,5.298-5,1
				c-1.721,1.468,1.299,2.11-3,1c3.075,4.197,0.674,0.704-1,4c0.658,1.342,2.138,1.862,4,2c0,1.667,0,3.333,0,5
				c-2.074-1.189-4.352-7.311-3-1c-2.109-2.091-3.618-4.775-2-8c-1.862,0.138-3.342,0.658-4,2c-1.322,0.483-0.062-4.584,1-5
				c-0.56-2.259-1.56,1.213-3-1c2.276-1.55,1.889-2.083,1-5c1.714-1.286,3.933-2.068,4-5c-2.779,0.344-3.619,5.263-7,2
				c5.024,3.845-7.243,9.205-3,6c1.84-1.704,2.681-5.017,0-6c1.85-0.15,0.613-3.386,2-4c-8.46-3.868-7.258-14.057-4-23
				c-7.966,5.197-18.252,26.002-2,30c-0.86,0.807-0.594,2.739-2,3c0.027,0.973,1.224,0.776,2,1c0.154,2.487-1.571,3.096-2,5
				c-2.578-0.241,1.373-1.721,0-4c-1.526,1.807-3.604,3.062-3,7c-1.862-0.138-3.342-0.658-4-2c0.122-3.523,1.456-0.273,4-2
				c-0.31-1.357-2.504-0.83-4-1c0.027-0.973,1.224-0.776,2-1c-0.529-0.805-1.043-1.624-1-3c-2.764,4.066-0.358-1.005-4-1
				c0.94-2.726,5.434-1.899,4-7c-3.604,1.73-3.449,7.217-8,8c0.013,1.987,2.729,1.271,2,4c-2.651-0.016-5.888,0.555-6-2
				c2.796-4.34,3.884-9.422,1-14c2.348,0.319,2.238,3.095,4,4c2.526-6.937-0.488-7.221-4-12c-2.409-0.409-2.174,1.826-5,1
				c0.097,3.729,3.903,0.068,4,2c-3.566,2.634-4.679,5.441-10,8c0.566-0.934,2.78-1.515,1-2c0.162-1.172,1.823-0.843,3-1
				c0.228-1.772-1.008-5.008,2-4c-0.247-1.086-1.988-0.678-2-2c-2.447,0.887-1.083,5.583-5,5c-2.264-1.922,2.868-8.189-2-9
				c5.232-9.143,13.31-11.956,24-17C35.833,3.833,43.195,6.195,46,4z M53,12c-2.667,2.939-7.881,10.921-2,11
				c-1.766,0.319-1.785-5.602,1-4c-0.558,4.489,0.733,8.184-4,15c2.699,0.751,5.339-2.143,7,3c1.283-1.314,1.283-3.686,0-5
				c0.776-0.224,1.973-0.027,2-1c-2.874-1.397-5.08,2.726-6,0c1.892-1.108,4.725-1.276,7-2c1.053-3.719-3.372-1.961-4-4
				c3.332-0.335,4.436-2.897,9-2c0.096-1.571-0.134-3.467,2-3c-1.121-3.15-0.09-2.264,0-6C60.289,9.738,58.577,16.437,53,12z M63,63
				c-0.458,3.124,2.137,3.197,5,3C68.458,62.876,65.863,62.803,63,63z M58,41c-2.506-0.172-2.428,2.239-4,3
				c1.182,1.151,3.535,1.132,6,1C61.235,41.764,56.765,44.236,58,41z"/>
			<path fill-rule="evenodd" clip-rule="evenodd" fill="#9B5430" d="M7,50c4.092,2.253-0.443-3.966,3-5c1.842,0.871,3.508,5.38,5,1
				c1.151,0.325,3.443,4.362,1,5c0.965,2.035,3.84,2.16,7,2c-0.646,3.311-2.02,4.354,2,3c-0.615,0.891-1.208,1.788,0,2
				c-0.247,1.086-1.988,0.679-2,2c-1.747-0.92-2.207-3.126-2-6c-6.043,2.925-6.03-2.332-12-2c0.615,0.891,1.208,1.788,0,2
				c-1.44-0.227-0.349-2.984-2-3C7,50.667,7,50.333,7,50z"/>
			<path fill-rule="evenodd" clip-rule="evenodd" fill="#BD723A" d="M65,14c-0.09,3.736-1.121,2.85,0,6
				c-2.134-0.467-1.904,1.429-2,3c-4.564-0.897-5.668,1.665-9,2c0.628,2.039,5.053,0.281,4,4c-2.275,0.724-5.108,0.892-7,2
				c0.92,2.726,3.126-1.397,6,0c-0.027,0.973-1.224,0.776-2,1c1.283,1.314,1.283,3.686,0,5c-1.661-5.143-4.301-2.249-7-3
				c4.733-6.816,3.442-10.511,4-15c-2.785-1.602-2.766,4.319-1,4c-5.881-0.079-0.667-8.061,2-11C58.577,16.437,60.289,9.738,65,14z
				 M55,19c-0.61-0.057-1.184-0.149-1-1c0.239-1.427,1.646-1.687,2-3c-1.742,0.075-3.11-0.223-4-1
				C51.558,16.537,53.972,21.234,55,19z M58,20c1.479,0.521,2.521,1.479,4,2c0.662-4.406-0.165-4.097,2-7
				C60.877,15.543,59.049,17.383,58,20z"/>
			<path fill-rule="evenodd" clip-rule="evenodd" fill="#BD723A" d="M65,11c2.007-0.34,3.129,0.205,3,2c0,0.333,0,0.667,0,1
				c1.386,0.09,1.051,2.55-1,2c-0.003-1.003,0.81-1.19,1-2c-2.483,0.15-4.15-0.517-5-2C63.776,11.776,64.973,11.973,65,11z"/>
			<path fill-rule="evenodd" clip-rule="evenodd" fill="#BD723A" d="M74,26c-2.078-1.119-2.119-1.078-1,1
				c-6.075,0.643,0.214-5.095-1-6c0.211,1.122,1.109,1.557,2,2C74,24,74,25,74,26z"/>
			<path fill-rule="evenodd" clip-rule="evenodd" fill="#BD723A" d="M72,31c-0.333,0-0.667,0-1,0c0.168,2.901-5.772,4.805-3,7
				c2.236,0.542,3.746,6.391-1,7c-0.623-5.627-2.221-0.272-6-1c0.903-1.763,2.237-3.097,4-4c0.111,0.795,3.306,3.031,3,1
				c-4.324-1.152-1.03-4.72-4-6c3.216-0.451,5.158-2.175,6-5c-2.031-1.92-2.389-3.96-4-4c1.278-0.055,1.385-1.282,3-1
				c-0.475,3.141,1.247,4.086,3,5C72,30.333,72,30.667,72,31z"/>
			<path fill-rule="evenodd" clip-rule="evenodd" fill="#BD723A" d="M47,40c2.681,0.983,1.84,4.296,0,6
				c-4.243,3.205,8.024-2.155,3-6c3.381,3.263,4.221-1.656,7-2c-0.067,2.932-2.286,3.714-4,5c0.889,2.917,1.276,3.45-1,5
				c1.44,2.213,2.44-1.259,3,1c-1.062,0.416-2.322,5.483-1,5c0.658-1.342,2.138-1.862,4-2c-1.618,3.225-0.109,5.909,2,8
				c-1.352-6.311,0.926-0.189,3,1c0-1.667,0-3.333,0-5c-1.862-0.138-3.342-0.658-4-2c1.674-3.296,4.075,0.197,1-4
				c4.299,1.11,1.279,0.468,3-1c2.6,4.298,1.91-0.547,5-1c-2.375,1.064,2.144,4.606-1,6c-1.479-0.521-2.521-1.479-4-2
				c-1.47,3.804,4.47,0.196,3,4c-5.475-0.776,3.186,6.666-1,2c1.003,0.003,1.19-0.81,2-1c0.314,1.352,1.424,1.91,1,4
				c-2.111-2.204-2.955,1.283-6,1c-0.875,6.975,8.271,4.91,9,5c-1.352,0.981-1.999,2.668-3,4c-0.973,0.027-0.776,1.224-1,2
				c-5.263-1.263-5.929,2.071-10,2c0.467-2.134-1.429-1.904-3-2c-2.009-2.039,0.442-1.961,1-4c-0.279-2.055-2.671-1.996-4-3
				c-0.688,2.688,2.067,1.933,3,3c-4.953-1.503-0.472,8.223,0,13c-1.291,3.958,3.291,2.042,2,6c-2.396-0.604-4.562-1.438-8-1
				c0.262-4.596-6.516-2.151-7-6c1.583-0.083,3.814,0.48,4-1c-2.956-0.872,3.023-0.794,1-4c-2.52,2.19-3.98,0.77-6,2
				c1.78,0.733,0.144,1.818,0,3c-3.2,0.2-4.324-1.676-5-4c-5,0-10,0-15,0c-4.602-6.731-9.037-13.63-11-23
				c1.208-0.212,0.615-1.109,0-2c5.97-0.332,5.957,4.925,12,2c-0.207,2.874,0.253,5.08,2,6c0.012-1.321,1.753-0.914,2-2
				c-1.208-0.212-0.615-1.109,0-2c-4.02,1.354-2.646,0.311-2-3c-3.16,0.16-6.035,0.035-7-2c2.443-0.638,0.151-4.675-1-5
				c-1.492,4.38-3.158-0.129-5-1c-3.443,1.034,1.092,7.253-3,5c-1.378-1.289-0.99-4.344-1-7c-1.143-3.705-0.098-5.797-1-8
				c0.754-4.579,3.953-6.714,5-11c4.868,0.811-0.264,7.078,2,9c3.917,0.583,2.553-4.113,5-5c0.012,1.322,1.753,0.914,2,2
				c-3.008-1.008-1.772,2.228-2,4c-1.177,0.157-2.838-0.172-3,1c1.78,0.485-0.434,1.066-1,2c5.321-2.559,6.434-5.366,10-8
				c-0.097-1.932-3.903,1.729-4-2c2.826,0.826,2.591-1.409,5-1c3.512,4.779,6.526,5.063,4,12c-1.762-0.905-1.652-3.681-4-4
				c2.884,4.578,1.796,9.66-1,14c0.112,2.555,3.349,1.984,6,2c0.729-2.729-1.987-2.013-2-4c4.551-0.783,4.396-6.27,8-8
				c1.434,5.101-3.06,4.274-4,7c3.642-0.005,1.236,5.066,4,1c-0.043,1.376,0.471,2.195,1,3c-0.776,0.224-1.973,0.027-2,1
				c1.496,0.17,3.69-0.357,4,1c-2.544,1.727-3.878-1.523-4,2c0.658,1.342,2.138,1.862,4,2c-0.604-3.938,1.474-5.193,3-7
				c1.373,2.279-2.578,3.759,0,4c0.429-1.904,2.154-2.513,2-5c-0.776-0.224-1.973-0.027-2-1c1.406-0.261,1.14-2.193,2-3
				C44.336,42.003,44.964,40.297,47,40z"/>
			<path fill-rule="evenodd" clip-rule="evenodd" fill="#313127" d="M68,66c-2.863,0.197-5.458,0.124-5-3
				C65.863,62.803,68.458,62.876,68,66z"/>
			<path fill-rule="evenodd" clip-rule="evenodd" fill="#9B5430" d="M52,14c0.89,0.777,2.258,1.075,4,1
				c-0.354,1.313-1.761,1.573-2,3c-0.184,0.851,0.39,0.943,1,1C53.972,21.234,51.558,16.537,52,14z"/>
			<path fill-rule="evenodd" clip-rule="evenodd" fill="#9B5430" d="M54,82c-0.472-4.777-4.953-14.503,0-13
				c-0.933-1.067-3.688-0.312-3-3c1.329,1.004,3.721,0.945,4,3c-0.558,2.039-3.009,1.961-1,4C54,76,54,79,54,82z"/>
			<path fill-rule="evenodd" clip-rule="evenodd" fill="#FFFFFF" d="M63,93c-0.652-6.117-5.376-9.697-5-14
				c4.258,0.591,6.614-0.719,10-1c5.418-1.249,7.404-5.929,11-9c1.055-15.44-4.621-31.059,2-42c0,22.333,0,44.667,0,67
				c-6,0-12,0-18,0C63,93.667,63,93.333,63,93z"/>
			<path fill-rule="evenodd" clip-rule="evenodd" fill="#D2D7D5" d="M44,87c5.545,2.788,10.408,6.258,19,6c0,0.333,0,0.667,0,1
				c-2,0-4,0-6,0C52.933,91.401,45.777,91.889,44,87z"/>
			<path fill-rule="evenodd" clip-rule="evenodd" fill="#313127" d="M45,1c1.333,0,2.667,0,4,0c10.301,2.473,27.06,8.992,30,19
				c1.611,5.486-2.67,11.569-3,18c-0.835,16.253,7.46,35.078-8,39c-2.874,1.126-7.798,0.202-10,2c-0.376,4.303,4.348,7.883,5,14
				c-8.592,0.258-13.455-3.212-19-6c-3.059-1.941-5.898-4.102-10-5C8.036,81.802,1.067,52.486,3,31C8.263,17.93,18.451,9.784,32,5
				c2.917-0.279,3.438,0.241,2,2c-10.69,5.044-18.768,7.857-24,17c-1.047,4.286-4.246,6.421-5,11c-0.333,0-0.667,0-1,0
				c-0.069,3.402-0.312,6.978,2,8c0.01,2.656-0.378,5.711,1,7c0,0.333,0,0.667,0,1c1.651,0.016,0.56,2.773,2,3
				c1.963,9.37,6.398,16.269,11,23c5,0,10,0,15,0c0.676,2.324,1.8,4.2,5,4c0.333,0,0.667,0,1,0c0.484,3.849,7.262,1.404,7,6
				c3.438-0.438,5.604,0.396,8,1c1.291-3.958-3.291-2.042-2-6c0-3,0-6,0-9c1.571,0.096,3.467-0.134,3,2
				c4.071,0.071,4.737-3.263,10-2c0.224-0.776,0.027-1.973,1-2c9.031-6.909,0.788-29.563,4-40c0-0.333,0-0.667,0-1
				c0.521-1.479,1.479-2.521,2-4c0-1,0-2,0-3c0.773-6.106-1.816-8.85-6-10c0.129-1.795-0.993-2.34-3-2
				c-3.658-5.009-12.532-4.801-19-7c-2.651-0.015-5.888,0.555-6-2C41.453,1.453,45.169,3.168,45,1z"/>
			<path fill-rule="evenodd" clip-rule="evenodd" fill="#FFFFFF" d="M32,5C18.451,9.784,8.263,17.93,3,31
				c-3.555-1.555-0.604,3.396-3,3C0,22.667,0,11.333,0,0c27,0,54,0,81,0c0,7,0,14,0,21C74.787,9.88,65.374,1.959,49,1
				c-1.333,0-2.667,0-4,0C38.808,0.474,34.675,2.009,32,5z"/>
			<path fill-rule="evenodd" clip-rule="evenodd" fill="#313127" d="M43,43c-16.252-3.998-5.966-24.803,2-30
				c-3.258,8.943-4.46,19.132,4,23c-1.387,0.614-0.15,3.85-2,4C44.964,40.297,44.336,42.003,43,43z"/>
			<path fill-rule="evenodd" clip-rule="evenodd" fill="#9B5430" d="M64,15c-2.165,2.903-1.338,2.594-2,7
				c-1.479-0.521-2.521-1.479-4-2C59.049,17.383,60.877,15.543,64,15z"/>
			<path fill-rule="evenodd" clip-rule="evenodd" fill="#313127" d="M60,45c-2.465,0.132-4.818,0.151-6-1
				c1.572-0.761,1.494-3.172,4-3C56.765,44.236,61.235,41.764,60,45z"/>
		</g>
	</g>
</g>
</svg>
